<?xml version="1.0" standalone="no"?>
<!DOCTYPE svg PUBLIC "-//W3C//DTD SVG 20010904//EN"
 "http://www.w3.org/TR/2001/REC-SVG-20010904/DTD/svg10.dtd">
<svg version="1.0" xmlns="http://www.w3.org/2000/svg"
 width="512.000000pt" height="512.000000pt" viewBox="0 0 512.000000 512.000000"
 preserveAspectRatio="xMidYMid meet">

<g transform="translate(0.000000,512.000000) scale(0.100000,-0.100000)"
fill="#000000" stroke="none">
<path d="M550 4252 c-104 -52 -107 -208 -6 -256 30 -14 126 -16 910 -16 967 0
920 3 971 -64 50 -65 31 -162 -41 -207 -31 -18 -62 -19 -1146 -19 l-1114 0
-44 -22 c-100 -52 -106 -182 -11 -245 l34 -23 1111 -1 c834 0 1119 -3 1145
-12 19 -7 48 -29 64 -49 51 -63 36 -159 -30 -204 -27 -18 -67 -19 -1055 -24
-1017 -5 -1027 -5 -1054 -26 -46 -34 -66 -68 -66 -115 -1 -55 23 -104 65 -129
29 -18 52 -20 280 -20 229 0 247 -1 247 -17 0 -10 -54 -304 -120 -654 -66
-353 -116 -646 -113 -660 9 -36 42 -68 82 -79 20 -5 82 -10 137 -10 l101 0 5
-104 c4 -93 8 -111 40 -178 62 -130 174 -218 320 -253 301 -71 668 149 784
470 l22 60 726 3 726 2 0 -59 c0 -333 277 -547 615 -476 146 31 323 143 418
264 54 68 111 170 128 229 l12 42 101 0 c213 1 254 32 292 227 33 165 32 207
-5 244 -16 16 -37 29 -45 29 -9 0 -16 3 -16 7 0 3 23 124 50 269 28 144 50
274 50 288 0 14 -13 40 -29 58 -26 30 -36 34 -96 38 l-67 5 -253 449 c-139
246 -262 458 -274 470 -21 20 -30 21 -341 24 -235 2 -320 6 -320 14 0 7 25
144 55 304 30 161 55 311 55 334 0 50 -22 85 -62 99 -22 8 -512 11 -1617 11
-1490 0 -1588 -1 -1621 -18z m3852 -1352 l188 -335 -511 -3 c-282 -1 -514 0
-516 2 -3 2 24 155 58 340 l63 336 265 -2 264 -3 189 -335z m-2760 -1166 c25
-8 64 -30 85 -49 123 -105 106 -313 -36 -448 -31 -30 -75 -63 -96 -74 -177
-89 -364 -27 -412 136 -37 127 27 292 146 374 106 73 216 94 313 61z m2619 5
c60 -21 117 -71 146 -128 76 -152 -12 -358 -191 -447 -89 -43 -161 -53 -237
-31 -200 59 -243 309 -84 486 96 106 253 157 366 120z"/>
</g>
</svg>
