<?xml version="1.0" standalone="no"?>
<!DOCTYPE svg PUBLIC "-//W3C//DTD SVG 20010904//EN"
 "http://www.w3.org/TR/2001/REC-SVG-20010904/DTD/svg10.dtd">
<svg version="1.0" xmlns="http://www.w3.org/2000/svg"
 width="225.000000pt" height="225.000000pt" viewBox="0 0 225.000000 225.000000"
 preserveAspectRatio="xMidYMid meet">

<g transform="translate(0.000000,225.000000) scale(0.100000,-0.100000)"
fill="#000000" stroke="none">
<path d="M996 2029 c-87 -12 -233 -60 -313 -105 -34 -19 -94 -60 -133 -91
-236 -188 -366 -502 -331 -804 41 -362 276 -654 617 -768 478 -160 993 97
1153 574 160 479 -97 995 -574 1154 -139 46 -270 59 -419 40z m154 -144 c20
-25 8 -50 -25 -50 -21 0 -31 5 -33 18 -4 21 14 47 33 47 7 0 18 -7 25 -15z
m-370 -100 c18 -22 8 -50 -19 -50 -32 0 -49 28 -32 49 17 20 35 20 51 1z m741
-1 c17 -21 0 -49 -32 -49 -27 0 -37 28 -19 50 16 19 34 19 51 -1z m-1011 -269
c18 -22 8 -50 -19 -50 -32 0 -49 28 -32 49 17 20 35 20 51 1z m1280 0 c20 -24
3 -57 -28 -53 -30 3 -41 30 -22 53 16 19 34 19 50 0z m-787 -92 c13 -21 54
-95 90 -164 l67 -127 -2 -298 -3 -299 -30 0 -30 0 -5 295 -5 295 -77 142 c-43
79 -78 149 -78 156 0 17 20 37 37 37 7 0 23 -17 36 -37z m-588 -298 c0 -25 -4
-30 -24 -30 -32 0 -49 28 -31 50 7 9 23 15 34 13 16 -2 21 -10 21 -33z m1476
19 c17 -21 0 -49 -32 -49 -24 0 -36 23 -25 51 7 19 40 18 57 -2z m-1373 -380
c2 -11 -4 -26 -12 -33 -31 -26 -71 14 -45 45 17 21 53 14 57 -12z m1273 10 c9
-11 10 -20 2 -32 -13 -22 -43 -22 -56 -1 -24 38 25 68 54 33z m-1003 -280 c4
-25 -22 -49 -43 -40 -22 8 -29 34 -14 52 17 21 53 14 57 -12z m733 10 c9 -11
10 -20 2 -32 -13 -22 -43 -22 -56 -1 -24 38 25 68 54 33z m-364 -100 c8 -22
-10 -49 -32 -49 -10 0 -22 7 -28 16 -15 24 -1 49 28 49 15 0 28 -7 32 -16z"/>
</g>
</svg>
