<?xml version="1.0" standalone="no"?>
<!DOCTYPE svg PUBLIC "-//W3C//DTD SVG 20010904//EN"
 "http://www.w3.org/TR/2001/REC-SVG-20010904/DTD/svg10.dtd">
<svg version="1.0" xmlns="http://www.w3.org/2000/svg"
 width="225.000000pt" height="225.000000pt" viewBox="0 0 225.000000 225.000000"
 preserveAspectRatio="xMidYMid meet">

<g transform="translate(0.000000,225.000000) scale(0.100000,-0.100000)"
fill="#000000" stroke="none">
<path d="M1059 2219 c-312 -46 -512 -374 -410 -672 64 -184 229 -321 419 -347
254 -35 503 130 567 375 75 290 -104 579 -398 639 -83 17 -94 18 -178 5z"/>
<path d="M685 1183 c-258 -201 -392 -463 -429 -844 l-6 -56 75 -42 c162 -93
353 -160 565 -197 115 -21 378 -23 495 -5 183 28 390 95 548 178 l68 36 -5 41
c-3 23 -8 70 -11 106 -27 298 -170 571 -398 762 l-59 49 -42 -39 c-52 -48
-117 -86 -174 -103 -37 -11 -42 -15 -37 -33 19 -56 17 -100 -5 -140 l-22 -41
36 -266 c20 -147 36 -277 36 -291 0 -16 -27 -50 -90 -113 l-90 -90 -95 96 -96
95 39 289 39 290 -21 28 c-27 37 -29 116 -3 145 18 19 17 20 -29 36 -61 21
-129 65 -179 115 -21 23 -42 41 -45 41 -3 0 -32 -21 -65 -47z"/>
</g>
</svg>
